# xmcd CD database file
#
# Track frame offsets:
#	150
#	16451
#	32473
#	53511
#	67583
#	85695
#	102553
#	118854
#	138917
#	158283
#	179599
#
# Disc length: 2493 seconds
#
# Revision: 0
# Processed by: cddbd v1.5.2PL0 Copyright (c) Steve Scherf et al.
# Submitted via: jetAudio 7
#
DISCID=7d09bb0b
DTITLE=張毅  - 弦情歲月2
DYEAR=1900
DGENRE=장르 없음
TTITLE0=頌歌
TTITLE1=珊瑚頌
TTITLE2=在一起
TTITLE3=蘋果豊收
TTITLE4=媽媽留給我一首歌
TTITLE5=牧羊曲
TTITLE6=金梭和銀梭
TTITLE7=美麗的草原我的家
TTITLE8=情深誼長
TTITLE9=彩雲追月
TTITLE10=婚誓
EXTD=
EXTT0=
EXTT1=
EXTT2=
EXTT3=
EXTT4=
EXTT5=
EXTT6=
EXTT7=
EXTT8=
EXTT9=
EXTT10=
PLAYORDER=
